<?xml version="1.0" standalone="no"?>
<!DOCTYPE svg PUBLIC "-//W3C//DTD SVG 20010904//EN"
 "http://www.w3.org/TR/2001/REC-SVG-20010904/DTD/svg10.dtd">
<svg version="1.0" xmlns="http://www.w3.org/2000/svg"
 width="1962.000000pt" height="1962.000000pt" viewBox="0 0 1962.000000 1962.000000"
 preserveAspectRatio="xMidYMid meet">
<metadata>
Created by potrace 1.11, written by Peter Selinger 2001-2013
</metadata>
<g transform="translate(0.000000,1962.000000) scale(0.100000,-0.100000)"
fill="#000000" stroke="none">
<path d="M9469 19616 c-2 -2 -43 -6 -90 -10 -47 -4 -95 -8 -106 -10 -11 -2
-44 -7 -74 -10 -45 -5 -213 -34 -284 -50 -95 -20 -312 -85 -360 -106 -11 -5
-43 -18 -72 -29 -69 -27 -218 -102 -266 -135 -21 -14 -40 -26 -42 -26 -2 0
-21 -12 -42 -26 -33 -22 -45 -25 -89 -19 -103 12 -483 5 -584 -10 -14 -2 -50
-6 -80 -10 -56 -6 -119 -14 -155 -21 -10 -2 -37 -6 -60 -10 -69 -10 -285 -62
-405 -97 -470 -139 -911 -379 -1276 -695 -74 -64 -92 -74 -190 -106 -274 -92
-684 -356 -1013 -651 -260 -234 -493 -480 -719 -761 -104 -129 -362 -488 -362
-504 0 -4 -3 -10 -7 -12 -9 -3 -30 -35 -112 -165 -28 -45 -51 -86 -51 -92 0
-5 -4 -11 -8 -13 -5 -1 -22 -28 -39 -58 -17 -30 -52 -93 -78 -140 -152 -270
-299 -597 -419 -930 -97 -268 -236 -764 -272 -975 -11 -63 -11 -65 -28 -155
-8 -47 -18 -101 -21 -120 -3 -19 -7 -46 -10 -60 -2 -14 -7 -49 -10 -79 -4 -30
-8 -62 -10 -72 -2 -10 -7 -46 -11 -81 -3 -35 -8 -70 -9 -78 -1 -8 -5 -55 -9
-105 -4 -49 -9 -101 -11 -115 -27 -186 -27 -1129 0 -1345 2 -16 7 -66 10 -110
4 -44 8 -93 10 -110 3 -16 9 -75 15 -130 6 -55 12 -112 15 -125 2 -14 7 -47
10 -75 3 -27 12 -90 20 -140 8 -49 17 -108 20 -129 3 -21 7 -48 10 -60 3 -12
7 -33 9 -49 13 -73 28 -153 51 -262 9 -44 19 -91 21 -103 4 -19 58 -248 79
-334 26 -107 140 -507 154 -543 5 -11 41 -114 81 -230 98 -282 158 -430 250
-615 128 -256 294 -531 504 -835 49 -71 99 -144 110 -160 12 -17 68 -94 126
-172 58 -79 115 -157 127 -174 12 -17 33 -45 47 -62 14 -18 53 -68 86 -112 89
-115 98 -127 280 -354 150 -187 389 -480 415 -507 5 -6 29 -33 52 -60 23 -27
51 -60 63 -74 11 -14 40 -47 63 -74 40 -48 214 -249 268 -311 95 -108 212
-240 266 -301 35 -40 72 -81 81 -92 9 -10 55 -61 102 -112 47 -51 92 -101 100
-111 54 -61 197 -218 315 -344 17 -18 68 -74 115 -125 47 -51 102 -111 124
-134 703 -749 1151 -1210 1841 -1897 659 -656 806 -797 854 -820 44 -21 51
-21 1002 -21 l958 0 53 25 c38 19 101 73 228 197 499 488 1242 1236 1640 1649
308 320 311 323 461 482 232 245 362 384 574 614 61 66 121 131 135 146 14 14
57 61 97 105 39 43 82 91 95 105 57 63 178 198 214 239 21 25 44 50 50 55 6 6
62 69 125 140 62 72 116 132 119 135 3 3 50 57 105 120 55 63 109 126 121 140
22 25 232 273 314 370 25 29 50 58 55 64 6 6 28 33 50 61 22 27 46 56 53 63
18 20 397 493 473 592 385 499 740 1018 915 1335 175 319 278 562 421 995 65
197 158 517 189 653 2 9 6 25 8 35 10 39 66 278 69 297 2 11 7 31 10 45 3 14
16 75 27 135 28 152 27 145 35 195 4 25 9 54 11 65 3 11 7 38 9 60 3 22 7 47
10 55 2 8 7 40 10 70 3 30 10 80 15 110 9 56 14 96 25 205 3 33 8 74 10 90 2
17 7 66 10 110 3 44 8 96 10 115 27 248 27 1104 0 1350 -3 25 -12 110 -20 190
-9 80 -18 163 -21 185 -3 22 -7 54 -9 70 -8 61 -17 121 -49 301 -7 38 -33 172
-40 199 -77 343 -154 616 -237 847 -22 62 -44 124 -48 138 -12 35 -59 151
-103 250 -14 30 -38 84 -53 120 -28 65 -212 429 -254 505 -13 22 -35 60 -50
85 -14 25 -32 54 -38 65 -69 116 -300 469 -333 507 -6 7 -41 54 -78 104 -200
270 -342 434 -597 690 -217 217 -258 255 -445 404 -313 251 -601 423 -840 500
-72 23 -106 41 -140 71 -373 334 -857 599 -1350 737 -111 31 -179 49 -220 57
-14 3 -47 9 -75 15 -27 6 -66 13 -85 16 -19 3 -60 9 -90 14 -179 29 -356 42
-579 41 -91 -1 -184 -3 -206 -6 -35 -4 -52 3 -145 59 -95 58 -166 94 -300 154
-121 53 -463 146 -620 167 -25 3 -52 8 -60 10 -8 2 -47 7 -87 10 -40 4 -85 9
-100 12 -32 5 -748 14 -754 9z"/>
<path d="M8861 1475 c-37 -12 -72 -42 -96 -77 -20 -32 -28 -179 -12 -240 11
-44 57 -93 103 -110 19 -6 34 -18 34 -25 0 -6 52 -198 116 -425 64 -227 120
-431 125 -453 15 -61 46 -102 92 -123 40 -19 63 -20 597 -19 595 2 578 1 627
54 24 26 30 43 132 413 39 140 76 271 81 290 6 19 26 88 44 154 32 116 34 119
70 137 52 25 64 37 85 78 22 42 28 178 12 239 -12 44 -63 95 -106 107 -46 12
-1870 12 -1904 0z"/>
<path d="M11600 1365 c-473 -115 -645 -700 -306 -1041 67 -67 161 -134 189
-134 7 0 17 -4 23 -9 21 -20 153 -44 239 -44 276 1 513 170 596 424 32 100 34
294 3 385 -62 183 -215 338 -396 401 -88 31 -258 40 -348 18z"/>
</g>
</svg>
